<?xml version="1.0" encoding="utf-8"?>
<!-- Generator: Adobe Illustrator 16.0.0, SVG Export Plug-In . SVG Version: 6.00 Build 0)  -->
<!DOCTYPE svg PUBLIC "-//W3C//DTD SVG 1.1//EN" "http://www.w3.org/Graphics/SVG/1.1/DTD/svg11.dtd">
<svg version="1.1" id="Capa_1" xmlns="http://www.w3.org/2000/svg" xmlns:xlink="http://www.w3.org/1999/xlink" x="0px" y="0px"
	 width="1200px" height="1200px" viewBox="0 0 1200 1200" enable-background="new 0 0 1200 1200" xml:space="preserve">
<g>
	<path fill-rule="evenodd" clip-rule="evenodd" fill="#2E3192" d="M1150,413.622c-0.208,0.567-0.562,1.125-0.602,1.703
		c-1.115,17.204-7.316,32.697-16.199,47.193c-12.224,19.936-28.902,35.521-48.253,48.381
		c-22.354,14.854-46.816,24.993-72.555,32.223c-22.028,6.189-44.485,10.012-67.252,12.195c-9.007,0.863-18.008,1.188-27.049,1.183
		c-51.947-0.041-103.894-0.021-155.842-0.021c-1.615,0-3.232,0-5.408,0c14.894-63.192,29.684-125.961,44.543-189.019
		c35.931,0,71.643,0,107.916,0c-10.032,42.704-20.328,85.263-30.491,128.386c1.563,0,2.773,0.018,3.982-0.004
		c16.307-0.283,32.626-0.237,48.91-1.018c6.936-0.333,13.873-2.066,20.671-3.73c19.041-4.666,36.88-12.143,52.793-23.803
		c10.954-8.031,20.222-17.613,26.947-29.51c5.216-9.227,8.372-19.104,8.434-29.721c0.088-15.236-5.761-28.064-16.76-38.533
		c-10.158-9.67-22.467-15.414-35.814-19.084c-11.533-3.173-23.279-4.828-35.291-4.805c-45.675,0.078-91.349,0.059-137.02-0.036
		c-3.026-0.006-5.053,0.839-7.08,3.128c-79.456,89.525-158.979,178.99-238.489,268.467c-0.813,0.92-1.578,1.881-2.922,3.487
		c1.961,0,3.263-0.011,4.565,0.004c28.979,0.333,57.962,0.42,86.932,1.077c26.46,0.602,52.918,1.592,79.353,2.836
		c22.93,1.08,45.84,2.598,68.739,4.213c19.39,1.37,38.775,2.934,58.119,4.811c39.446,3.823,78.773,8.635,117.777,15.774
		c24.543,4.494,48.976,9.575,72.521,18.038c7.633,2.744,15.071,6.18,22.287,9.906c3.934,2.031,7.59,4.965,10.706,8.143
		c6.003,6.131,5.813,12.648,0.057,19.039c-3.319,3.687-7.42,6.355-11.713,8.737c-9.359,5.192-19.367,8.837-29.538,12.037
		c-20.84,6.56-42.114,11.382-63.627,14.997c-22.618,3.806-45.297,7.325-68.029,10.343c-19.511,2.59-39.12,4.486-58.717,6.335
		c-20.104,1.896-40.231,3.573-60.376,4.96c-20.273,1.399-40.568,2.5-60.87,3.411c-24.686,1.111-49.382,2.27-74.085,2.725
		c-36.625,0.673-73.266,1.096-109.895,0.973c-32.989-0.116-65.984-0.816-98.961-1.803c-27.206-0.813-54.404-2.123-81.575-3.762
		c-26.79-1.619-53.58-3.492-80.294-6.047c-28.454-2.724-56.867-6.007-85.209-9.721c-30.707-4.022-61.207-9.381-91.232-17.139
		c-14.451-3.734-28.771-7.932-42.27-14.42c-4.386-2.105-8.585-4.682-12.616-7.416c-2.343-1.59-4.445-3.721-6.196-5.971
		c-4.068-5.217-4.054-10.674,0.182-15.834c2.12-2.584,4.675-4.984,7.469-6.789c4.402-2.848,9.04-5.414,13.813-7.585
		c14.892-6.776,30.613-11.093,46.455-14.94c25.602-6.215,51.504-10.912,77.603-14.408c23.735-3.182,47.495-6.236,71.305-8.754
		c21.696-2.289,43.47-3.918,65.226-5.602c38.779-3,77.617-4.979,116.495-6.104c22.193-0.645,44.392-1.183,66.591-1.609
		c15.053-0.291,30.106-0.311,45.159-0.461c0.977-0.008,1.951-0.1,3.385-0.179c-31.274-85.526-62.448-170.782-93.623-256.038
		c-0.185,0.059-0.37,0.117-0.557,0.174c1.089,5.372,2.34,10.717,3.236,16.121c3.795,22.828,2.818,45.239-6.307,66.855
		c-8.064,19.102-21.115,34.262-37.313,46.881c-17.075,13.305-36.212,22.842-56.326,30.549c-23.012,8.816-46.79,14.874-70.945,19.537
		c-23.413,4.518-47.04,7.551-70.782,9.643c-21.998,1.939-44.051,2.943-66.129,3.514c-28.113,0.723-56.195,0.008-84.276-1.127
		c-0.838-0.033-1.668-0.219-2.875-0.388c14.847-62.997,29.639-125.771,44.455-188.647c36.313,0,72.284,0,108.703,0
		c-0.221,1.299-0.343,2.484-0.632,3.631c-10.241,40.717-20.5,81.434-30.748,122.152c-0.264,1.051-0.41,2.137-0.639,3.35
		c0.959,0.121,1.572,0.279,2.178,0.264c13.544-0.324,27.151,0.069,40.615-1.152c32.157-2.918,62.247-12.051,87.825-32.748
		c12.416-10.047,21.97-22.328,26.933-37.769c7.468-23.235,0.204-46.217-19.237-61.005c-10.815-8.227-23.185-12.811-36.38-15.409
		c-8.642-1.702-17.377-2.333-26.187-2.335c-17.564-0.004-35.128-0.146-52.694-0.252c-29.357-0.174-58.715-0.361-88.07-0.543
		c-1.355-0.008-2.707,0-4.706,0c4.685-20.789,9.243-41.01,13.838-61.393c135.055,0,269.886,0,405.045,0
		c18.03,58.984,36.074,118.011,54.335,177.749c1.419-1.69,2.446-2.871,3.421-4.091c33.128-41.463,66.252-82.925,99.375-124.387
		c12.139-15.193,24.322-30.352,36.382-45.607c1.636-2.07,3.315-2.93,5.977-2.93c83.063,0.065,166.13,0.008,249.193,0.11
		c10.81,0.013,21.459,2.044,32.035,4.168c21.673,4.348,42.307,11.499,61.287,23.011c18.107,10.981,33.188,25.058,43.861,43.542
		c6.02,10.42,10.015,21.58,11.99,33.452c0.424,2.545,0.697,5.115,1.036,7.672C1150,402.579,1150,408.099,1150,413.622z
		 M563.667,654.991c-3.384,0-6.771-0.041-10.155,0.01c-28.634,0.412-57.116,2.541-85.295,7.855
		c-12.699,2.395-25.291,5.298-37.165,10.536c-4.326,1.907-8.611,4.19-12.375,7.021c-8.136,6.111-8.152,13.308,0.032,19.406
		c4.068,3.033,8.722,5.449,13.403,7.465c12.268,5.273,25.261,8.105,38.338,10.523c24.351,4.504,48.961,6.541,73.674,7.287
		c31.515,0.955,62.955-0.225,94.233-4.387c15.791-2.102,31.441-4.973,46.676-9.764c6.825-2.148,13.578-4.574,19.596-8.506
		c2.79-1.822,5.446-4.08,7.586-6.623c2.969-3.532,2.946-7.832-0.021-11.399c-2.045-2.462-4.511-4.863-7.288-6.368
		c-5.373-2.908-10.952-5.583-16.711-7.609c-16.989-5.98-34.683-8.939-52.469-11.252
		C611.814,656.081,587.769,654.959,563.667,654.991z"/>
	<path fill-rule="evenodd" clip-rule="evenodd" fill="#2E3192" d="M872.459,810.321c16.078,0.07,31.335,3.449,45.42,11.414
		c7.958,4.498,14.845,10.25,20.111,17.809c10.265,14.719,10.22,32.455-0.186,47.1c-7.033,9.904-16.584,16.66-27.6,21.391
		c-14.555,6.252-29.781,8.514-45.578,7.273c-12.141-0.953-23.719-3.879-34.588-9.402c-8.37-4.254-15.74-9.795-21.578-17.236
		c-12.358-15.752-12.495-35.203-0.255-51.037c7.824-10.123,18.208-16.719,30.017-21.227
		C849.235,812.204,860.669,810.261,872.459,810.321z M874.533,828.446c-10.519-0.08-17.843,1.346-24.824,4.436
		c-7.144,3.16-13.294,7.629-17.509,14.303c-6.391,10.117-6.27,20.35,0.172,30.416c3.236,5.061,7.718,8.896,12.95,11.789
		c11.539,6.385,23.829,8.137,36.733,5.617c9.322-1.82,17.602-5.715,24.33-12.569c11.656-11.876,11.723-28.47,0.017-40.345
		C896.871,832.427,884.879,828.786,874.533,828.446z"/>
	<path fill-rule="evenodd" clip-rule="evenodd" fill="#2E3192" d="M733.495,813.403c0,5.436,0,10.672,0,16.311
		c-23.283,0-46.421,0-69.427,0c-0.958,3-1.211,15.541-0.505,22.057c21.935,0,43.929,0,66.118,0c0,5.674,0,10.887,0,16.555
		c-11.023,0.262-22.006,0.079-32.984,0.113c-11.002,0.033-22.003,0.008-33.22,0.008c0,9.188,0,17.922,0,27.207
		c4.608,0.033,9.194,0.078,13.78,0.092c4.641,0.018,9.282,0.006,13.921,0.006c4.766,0,9.533,0,14.299,0c4.643,0,9.282,0,13.921,0
		c4.614,0,9.225,0,14.031,0c0,5.768,0,11.086,0,16.623c-35.022,0-69.826,0-104.905,0c0-32.92,0-65.711,0-98.512
		C631.123,813.061,728.69,812.563,733.495,813.403z"/>
	<path fill-rule="evenodd" clip-rule="evenodd" fill="#2E3192" d="M441.715,912.401c0-33.381,0-66.33,0-99.518
		c1.005-0.078,1.846-0.203,2.686-0.199c16.311,0.074,32.63-0.22,48.918,0.361c15.472,0.553,30.206,4.496,43.699,12.391
		c6.115,3.584,11.545,8.003,15.992,13.547c13.218,16.469,12.185,36.674-2.637,51.717c-7.834,7.949-17.383,13.178-27.852,16.604
		c-6.646,2.178-13.549,3.576-20.359,5.225c-1.316,0.316-2.746,0.219-4.121,0.217c-17.563-0.039-35.124-0.092-52.687-0.154
		C444.251,912.585,443.145,912.479,441.715,912.401z M468.687,895.552c8.729,0,16.994-0.127,25.256,0.035
		c10.322,0.199,19.154-3.557,26.764-10.146c12.339-10.692,13.834-28.104,3.646-40.879c-7.6-9.527-17.927-13.875-29.813-14.499
		c-7.751-0.407-15.542-0.118-23.313-0.114c-0.831,0-1.661,0.176-2.54,0.275C468.687,851.963,468.687,873.478,468.687,895.552z"/>
	<path fill-rule="evenodd" clip-rule="evenodd" fill="#2E3192" d="M149.639,812.736c5.219,0,9.843-0.013,14.466,0.004
		c4.515,0.017,9.031,0.144,13.542,0.06c2.519-0.047,3.984,0.766,5.201,3.188c9.782,19.488,19.745,38.887,29.653,58.309
		c0.73,1.436,1.475,2.864,2.483,4.82c0.836-1.441,1.465-2.408,1.982-3.434c9.682-19.258,19.347-38.525,29.021-57.787
		c0.618-1.23,1.162-2.525,1.964-3.63c0.444-0.612,1.348-1.253,2.05-1.259c9.241-0.083,18.486-0.055,28.229-0.055
		c-0.59,1.342-0.901,2.236-1.353,3.053c-17.759,32.146-35.554,64.273-53.251,96.453c-1.197,2.176-2.509,3.094-4.99,2.916
		c-2.995-0.215-6.029-0.225-9.023,0c-2.851,0.219-4.445-0.707-5.862-3.354c-8.934-16.682-18.091-33.246-27.178-49.852
		c-8.242-15.062-16.49-30.123-24.73-45.189C151.19,815.788,150.587,814.563,149.639,812.736z"/>
	<path fill-rule="evenodd" clip-rule="evenodd" fill="#2E3192" d="M369.898,912.394c-9.009,0-17.728,0-26.689,0
		c0-32.988,0-65.771,0-99.097c8.844-0.155,17.648-0.062,26.689-0.062C369.898,846.386,369.898,879.185,369.898,912.394z"/>
	<path fill-rule="evenodd" clip-rule="evenodd" fill="#2E3192" d="M1036.455,757.997c-0.454,3.296-0.907,6.59-1.384,10.052
		c-1.615,0-3.051,0-4.925,0c0.993-6.075,1.955-11.938,2.944-17.969c2.354,0,4.417,0,6.678,0c0.343,2.361,0.659,4.558,0.978,6.749
		c0.186,0.033,0.375,0.066,0.563,0.1c0.337-1.037,0.683-2.073,1.003-3.119c0.367-1.179,0.71-2.365,1.117-3.724
		c2.064,0,4.031,0,6.006,0c0.806,2.548,0.984,13.098,0.267,17.948c-1.286,0-2.61,0-4.23,0c0-3.02,0-6.082,0-9.146
		c-0.227-0.041-0.451-0.084-0.68-0.125c-0.878,3.04-1.758,6.076-2.686,9.286c-1.243,0-2.446,0-3.85,0
		c-0.446-3.401-0.881-6.722-1.315-10.044C1036.779,758.002,1036.618,758,1036.455,757.997z"/>
	<path fill-rule="evenodd" clip-rule="evenodd" fill="#2E3192" d="M1025.418,768.046c-1.887,0-3.577,0-5.696,0
		c0.16-2.203,0.316-4.283,0.468-6.359c0.151-2.123,0.304-4.246,0.471-6.582c-0.975-0.305-1.87-0.586-2.95-0.928
		c0-1.168,0-2.367,0-3.545c2.637-0.951,7.732-1.1,12.449-0.34c0.03,0.523,0.105,1.113,0.087,1.701
		c-0.017,0.621-0.122,1.239-0.216,2.069c-1.008,0.283-2.041,0.571-3.334,0.932C1026.284,759.224,1025.86,763.548,1025.418,768.046z"
		/>
</g>
</svg>
